<svg width="727" height="167" viewBox="0 0 727 167" fill="none" xmlns="http://www.w3.org/2000/svg">
<rect x="1" y="31" width="7" height="119" fill="white"/>
<path d="M51.8281 134.469C38.8594 134.469 28.8984 130.973 21.9453 123.98C15.0312 116.988 11.5742 106.305 11.5742 91.9297C11.5742 77.5156 15.1875 66.8516 22.4141 59.9375C29.6797 52.9844 40.5586 49.5078 55.0508 49.5078H68.1172C76.75 49.5078 84.5234 51.5781 91.4375 55.7188C98.3906 59.8203 101.867 64.957 101.867 71.1289C101.867 73.4336 101.184 75.0938 99.8164 76.1094C98.4492 77.0859 97.1211 77.5742 95.832 77.5742H88.8594C85.5 77.5742 82.8242 75.6602 80.832 71.832C78.8398 68.0039 73.918 66.0898 66.0664 66.0898H55.6367C47.082 66.0898 41.2812 67.9258 38.2344 71.5977C35.1875 75.2695 33.6641 82.0273 33.6641 91.8711C33.6641 101.715 35.0312 108.531 37.7656 112.32C40.5 116.07 45.3828 117.945 52.4141 117.945H64.4258C70.7148 117.945 75.207 116.754 77.9023 114.371C80.5977 111.949 81.9844 108.492 82.0625 104H68.8203C67.2969 104 65.9883 103.473 64.8945 102.418C63.8398 101.324 63.3125 100.016 63.3125 98.4922V93.9219C63.3125 92.3984 63.8398 91.1094 64.8945 90.0547C65.9883 88.9609 67.2969 88.4141 68.8203 88.4141H98.2344C99.7578 88.4141 101.047 88.9609 102.102 90.0547C103.195 91.1094 103.742 92.3984 103.742 93.9219V100.426C103.742 111.363 100.461 119.781 93.8984 125.68C87.3359 131.539 77.707 134.469 65.0117 134.469H51.8281ZM114.582 130.426V53.6094C114.582 52.5547 114.914 51.6953 115.578 51.0312C116.281 50.3281 117.141 49.9766 118.156 49.9766H131.281C132.297 49.9766 133.137 50.3281 133.801 51.0312C134.504 51.6953 134.855 52.5547 134.855 53.6094V130.426C134.855 131.441 134.504 132.301 133.801 133.004C133.137 133.668 132.297 134 131.281 134H118.156C117.141 134 116.281 133.668 115.578 133.004C114.914 132.301 114.582 131.441 114.582 130.426ZM153.371 129.781C148.215 126.188 145.637 121.109 145.637 114.547C145.637 107.984 148.215 102.945 153.371 99.4297C158.566 95.9141 165.246 94.1562 173.41 94.1562H192.805C192.805 89.5859 191.848 86.4023 189.934 84.6055C188.02 82.8086 184.66 81.9102 179.855 81.9102C175.09 81.9102 171.73 83.1016 169.777 85.4844C167.863 87.8281 165.5 89 162.688 89H153.957C152.902 89 152.023 88.668 151.32 88.0039C150.656 87.3008 150.324 86.4414 150.324 85.4258C150.324 74.2148 160.969 68.6094 182.258 68.6094C191.555 68.6094 199.016 70.6992 204.641 74.8789C210.266 79.0195 213.078 85.4453 213.078 94.1562V130.426C213.078 131.48 212.746 132.34 212.082 133.004C211.418 133.668 210.559 134 209.504 134H198.195C197.141 134 196.281 133.668 195.617 133.004C194.953 132.301 194.621 131.441 194.621 130.426V128.609C188.449 133.023 181.32 135.211 173.234 135.172C165.188 135.172 158.566 133.375 153.371 129.781ZM174.816 107.457C172.082 107.457 169.914 108.121 168.312 109.449C166.75 110.777 165.969 112.496 165.969 114.605C165.969 116.715 166.789 118.453 168.43 119.82C170.07 121.188 172.395 121.871 175.402 121.871C181.418 121.871 187.219 120.113 192.805 116.598V107.457H174.816ZM252.629 135.172C244.465 135.172 237.629 132.301 232.121 126.559C226.652 120.816 223.918 112.594 223.918 101.891C223.918 91.1484 226.75 82.9258 232.414 77.2227C238.117 71.4805 245.773 68.6094 255.383 68.6094C260.344 68.6094 265.988 69.6055 272.316 71.5977V53.6094C272.316 52.5547 272.648 51.6953 273.312 51.0312C274.016 50.3281 274.875 49.9766 275.891 49.9766H288.957C290.012 49.9766 290.871 50.3281 291.535 51.0312C292.238 51.6953 292.59 52.5547 292.59 53.6094V130.426C292.59 131.441 292.238 132.301 291.535 133.004C290.871 133.668 290.012 134 288.957 134H277.707C276.652 134 275.793 133.668 275.129 133.004C274.465 132.301 274.133 131.441 274.133 130.426V128.609C267.961 132.984 260.793 135.172 252.629 135.172ZM259.602 82.7891C254.211 82.7891 250.402 84.3125 248.176 87.3594C245.949 90.3672 244.836 95.2109 244.836 101.891C244.836 108.57 245.891 113.434 248 116.48C250.109 119.527 253.273 121.051 257.492 121.051C261.75 121.051 266.691 119.293 272.316 115.777V85.1328C267.277 83.5703 263.039 82.7891 259.602 82.7891ZM307.004 57.5352V55.543C307.004 53.4727 307.59 51.832 308.762 50.6211C309.973 49.4102 311.633 48.8047 313.742 48.8047H321.008C323.078 48.8047 324.719 49.4102 325.93 50.6211C327.141 51.793 327.746 53.4336 327.746 55.543V57.5352C327.746 59.6055 327.141 61.2461 325.93 62.457C324.758 63.668 323.117 64.2734 321.008 64.2734H313.742C311.672 64.2734 310.031 63.668 308.82 62.457C307.609 61.2461 307.004 59.6055 307.004 57.5352ZM307.238 130.426V74.8203C307.238 73.7656 307.57 72.9062 308.234 72.2422C308.938 71.5781 309.797 71.2461 310.812 71.2461H323.938C324.992 71.2461 325.852 71.5977 326.516 72.3008C327.18 72.9648 327.512 73.8047 327.512 74.8203V130.426C327.512 131.48 327.16 132.34 326.457 133.004C325.793 133.668 324.953 134 323.938 134H310.812C309.758 134 308.898 133.668 308.234 133.004C307.57 132.34 307.238 131.48 307.238 130.426ZM378.781 134.469C365.812 134.469 355.852 130.973 348.898 123.98C341.984 116.988 338.527 106.305 338.527 91.9297C338.527 77.5156 342.141 66.8516 349.367 59.9375C356.633 52.9844 367.512 49.5078 382.004 49.5078H395.07C403.703 49.5078 411.477 51.5781 418.391 55.7188C425.344 59.8203 428.82 64.957 428.82 71.1289C428.82 73.4336 428.137 75.0938 426.77 76.1094C425.402 77.0859 424.074 77.5742 422.785 77.5742H415.812C412.453 77.5742 409.777 75.6602 407.785 71.832C405.793 68.0039 400.871 66.0898 393.02 66.0898H382.59C374.035 66.0898 368.234 67.9258 365.188 71.5977C362.141 75.2695 360.617 82.0273 360.617 91.8711C360.617 101.715 361.984 108.531 364.719 112.32C367.453 116.07 372.336 117.945 379.367 117.945H391.379C397.668 117.945 402.16 116.754 404.855 114.371C407.551 111.949 408.938 108.492 409.016 104H395.773C394.25 104 392.941 103.473 391.848 102.418C390.793 101.324 390.266 100.016 390.266 98.4922V93.9219C390.266 92.3984 390.793 91.1094 391.848 90.0547C392.941 88.9609 394.25 88.4141 395.773 88.4141H425.188C426.711 88.4141 428 88.9609 429.055 90.0547C430.148 91.1094 430.695 92.3984 430.695 93.9219V100.426C430.695 111.363 427.414 119.781 420.852 125.68C414.289 131.539 404.66 134.469 391.965 134.469H378.781ZM485.949 84.6641L476.926 84.3125C471.652 84.3125 466.613 87.2031 461.809 92.9844V130.426C461.809 131.48 461.457 132.34 460.754 133.004C460.09 133.668 459.25 134 458.234 134H445.109C444.055 134 443.195 133.668 442.531 133.004C441.867 132.34 441.535 131.48 441.535 130.426V73.4141C441.535 72.3594 441.867 71.5 442.531 70.8359C443.234 70.1328 444.094 69.7812 445.109 69.7812H458.234C459.289 69.7812 460.148 70.1328 460.812 70.8359C461.477 71.5 461.809 72.3594 461.809 73.4141V77.1055C465.793 74.2148 469.621 72.0859 473.293 70.7188C477.004 69.3125 481.848 68.6094 487.824 68.6094C488.879 68.6094 489.738 68.9609 490.402 69.6641C491.105 70.3281 491.457 71.168 491.457 72.1836V81.0898C491.457 82.1445 491.105 83.0039 490.402 83.668C489.738 84.332 488.879 84.6641 487.824 84.6641H485.949ZM502.824 129.781C497.668 126.188 495.09 121.109 495.09 114.547C495.09 107.984 497.668 102.945 502.824 99.4297C508.02 95.9141 514.699 94.1562 522.863 94.1562H542.258C542.258 89.5859 541.301 86.4023 539.387 84.6055C537.473 82.8086 534.113 81.9102 529.309 81.9102C524.543 81.9102 521.184 83.1016 519.23 85.4844C517.316 87.8281 514.953 89 512.141 89H503.41C502.355 89 501.477 88.668 500.773 88.0039C500.109 87.3008 499.777 86.4414 499.777 85.4258C499.777 74.2148 510.422 68.6094 531.711 68.6094C541.008 68.6094 548.469 70.6992 554.094 74.8789C559.719 79.0195 562.531 85.4453 562.531 94.1562V130.426C562.531 131.48 562.199 132.34 561.535 133.004C560.871 133.668 560.012 134 558.957 134H547.648C546.594 134 545.734 133.668 545.07 133.004C544.406 132.301 544.074 131.441 544.074 130.426V128.609C537.902 133.023 530.773 135.211 522.688 135.172C514.641 135.172 508.02 133.375 502.824 129.781ZM524.27 107.457C521.535 107.457 519.367 108.121 517.766 109.449C516.203 110.777 515.422 112.496 515.422 114.605C515.422 116.715 516.242 118.453 517.883 119.82C519.523 121.188 521.848 121.871 524.855 121.871C530.871 121.871 536.672 120.113 542.258 116.598V107.457H524.27ZM602.082 135.172C593.918 135.172 587.082 132.301 581.574 126.559C576.105 120.816 573.371 112.594 573.371 101.891C573.371 91.1484 576.203 82.9258 581.867 77.2227C587.57 71.4805 595.227 68.6094 604.836 68.6094C609.797 68.6094 615.441 69.6055 621.77 71.5977V53.6094C621.77 52.5547 622.102 51.6953 622.766 51.0312C623.469 50.3281 624.328 49.9766 625.344 49.9766H638.41C639.465 49.9766 640.324 50.3281 640.988 51.0312C641.691 51.6953 642.043 52.5547 642.043 53.6094V130.426C642.043 131.441 641.691 132.301 640.988 133.004C640.324 133.668 639.465 134 638.41 134H627.16C626.105 134 625.246 133.668 624.582 133.004C623.918 132.301 623.586 131.441 623.586 130.426V128.609C617.414 132.984 610.246 135.172 602.082 135.172ZM609.055 82.7891C603.664 82.7891 599.855 84.3125 597.629 87.3594C595.402 90.3672 594.289 95.2109 594.289 101.891C594.289 108.57 595.344 113.434 597.453 116.48C599.562 119.527 602.727 121.051 606.945 121.051C611.203 121.051 616.145 119.293 621.77 115.777V85.1328C616.73 83.5703 612.492 82.7891 609.055 82.7891ZM656.457 57.5352V55.543C656.457 53.4727 657.043 51.832 658.215 50.6211C659.426 49.4102 661.086 48.8047 663.195 48.8047H670.461C672.531 48.8047 674.172 49.4102 675.383 50.6211C676.594 51.793 677.199 53.4336 677.199 55.543V57.5352C677.199 59.6055 676.594 61.2461 675.383 62.457C674.211 63.668 672.57 64.2734 670.461 64.2734H663.195C661.125 64.2734 659.484 63.668 658.273 62.457C657.062 61.2461 656.457 59.6055 656.457 57.5352ZM656.691 130.426V74.8203C656.691 73.7656 657.023 72.9062 657.688 72.2422C658.391 71.5781 659.25 71.2461 660.266 71.2461H673.391C674.445 71.2461 675.305 71.5977 675.969 72.3008C676.633 72.9648 676.965 73.8047 676.965 74.8203V130.426C676.965 131.48 676.613 132.34 675.91 133.004C675.246 133.668 674.406 134 673.391 134H660.266C659.211 134 658.352 133.668 657.688 133.004C657.023 132.34 656.691 131.48 656.691 130.426Z" fill="white"/>
<rect x="691" y="110" width="7" height="40" fill="white"/>
<rect x="693" y="114.95" width="7" height="40" transform="rotate(-45 693 114.95)" fill="white"/>
<rect x="721.284" y="38" width="7" height="40" transform="rotate(45 721.284 38)" fill="white"/>
<rect x="691" y="31" width="7" height="40" fill="white"/>
<rect x="8" y="150" width="7" height="683" transform="rotate(-90 8 150)" fill="white"/>
<rect x="350" y="7.97336" width="7" height="346" transform="rotate(-85 350 7.97336)" fill="white"/>
<rect x="0.610077" y="38.1293" width="7" height="352.211" transform="rotate(-95 0.610077 38.1293)" fill="white"/>
</svg>
